# xmcd
# 
# Track frame offsets:
#     182
#     23455
#     39852
#     58247
#     64287
#     91640
#     108862
#     133845
#     158185
#     181730
#     188992
#     203565
# 
# Disc length: 3220
# 
# Revision: 19
# Processed by: cddbd v1.5.2PL0 Copyright (c) Steve Scherf et al.
# Submitted via: BonkEnc v1.0.6
# 
DISCID=940c920c
DTITLE=Stone Temple Pilots - Core
DYEAR=1992
DGENRE=Grunge
TTITLE0=Dead and Bloated
TTITLE1=Sex Type Thing
TTITLE2=Wicked Garden
TTITLE3=No Memory
TTITLE4=Sin
TTITLE5=Naked Sunday
TTITLE6=Creep
TTITLE7=Piece Of Pie
TTITLE8=Plush
TTITLE9=Wet My Bed
TTITLE10=Crackerman
TTITLE11=Where The River Goes
EXTD=
EXTT0=
EXTT1=
EXTT2=
EXTT3=
EXTT4=
EXTT5=
EXTT6=
EXTT7=
EXTT8=
EXTT9=
EXTT10=
EXTT11=
PLAYORDER=
